<svg width="184" height="60" viewBox="0 0 184 60" fill="none" xmlns="http://www.w3.org/2000/svg">
<rect x="0.98584" y="0.450684" width="60.3099" height="59.0986" rx="9.37716" fill="#9EFF00"/>
<path d="M11.9858 18.7123L31.1408 30L31.1408 51.5493L11.9858 40.6036L11.9858 18.7123Z" fill="#1A1A1A"/>
<path fill-rule="evenodd" clip-rule="evenodd" d="M32.8309 29.9849V48.6369L48.6056 39.6228V20.6891L32.8309 29.9849ZM50.2957 40.6036L31.1408 51.5493V30L11.9858 18.7123L31.1408 8.45068L50.2957 18.7123V40.6036ZM47.7195 19.2495L31.1408 10.3681L15.434 18.7824L31.973 28.5287L47.7195 19.2495Z" fill="#1A1A1A"/>
<g filter="url(#filter0_d_19_566)">
<path d="M77.6068 20C80.6377 20 82.9331 21.6491 83.5125 24.3011L80.4817 24.9251C80.2588 23.5211 79.0331 22.6074 77.54 22.6074C76.0245 22.6074 75.1108 23.4543 75.1108 24.4571C75.1108 25.2149 75.4451 25.7497 76.604 25.9726L79.8131 26.6189C82.2422 27.1314 83.7354 28.58 83.7354 30.8977C83.7354 33.7949 81.3508 35.6 77.8074 35.6C74.6874 35.6 71.9462 34.1514 71.5674 31.1651L74.7542 30.5189C75.1554 32.2126 76.4034 32.948 78.0971 32.948C79.8354 32.948 80.7491 32.1234 80.7491 31.0537C80.7491 30.2069 80.348 29.6943 79.0108 29.4269L75.8462 28.8251C74.0634 28.4463 71.924 27.4657 71.924 24.5463C71.924 21.872 74.108 20 77.6068 20Z" fill="white"/>
<path d="M97.5887 24.1451V39.0543H94.647V34.3966C93.711 35.1543 92.4853 35.6 90.9699 35.6C88.1396 35.6 85.5099 33.2154 85.5099 29.7166C85.5099 26.2177 88.1396 23.8109 90.9699 23.8109C92.4853 23.8109 93.711 24.2566 94.647 25.0366V24.1451H97.5887ZM91.4825 33.0371C93.0647 33.0371 94.647 31.7669 94.647 29.7166C94.647 27.6663 93.0647 26.3737 91.4825 26.3737C89.6996 26.3737 88.3625 27.6663 88.3625 29.7166C88.3625 31.7669 89.6996 33.0371 91.4825 33.0371Z" fill="white"/>
<path d="M111.199 24.1451V35.2657H108.257V34.2629C107.388 35.132 106.229 35.6 104.758 35.6C102.084 35.6 100.301 33.6834 100.301 30.92V24.1451H103.243V30.296C103.243 31.856 104.134 32.9034 105.494 32.9034C107.165 32.9034 108.257 31.7891 108.257 29.0703V24.1451H111.199Z" fill="white"/>
<path d="M125.511 24.1451V35.2657H122.569V34.3966C121.633 35.1543 120.408 35.6 118.892 35.6C116.062 35.6 113.432 33.2154 113.432 29.7166C113.432 26.2177 116.062 23.8109 118.892 23.8109C120.408 23.8109 121.633 24.2566 122.569 25.0366V24.1451H125.511ZM119.405 33.0371C120.987 33.0371 122.569 31.7669 122.569 29.7166C122.569 27.6663 120.987 26.3737 119.405 26.3737C117.622 26.3737 116.285 27.6663 116.285 29.7166C116.285 31.7669 117.622 33.0371 119.405 33.0371Z" fill="white"/>
<path d="M135.553 23.9891C135.843 23.9891 136.066 23.9891 136.333 24.0783L136.177 26.9086H135.531C132.812 26.9086 131.564 28.58 131.564 31.6777V35.2657H128.622V24.1451H131.564V26.1731C132.455 24.8806 133.748 23.9891 135.553 23.9891Z" fill="white"/>
<path d="M148.564 29.4937V30.4966H140.096C140.385 32.1011 141.522 33.0817 142.881 33.0817C143.75 33.0817 144.842 32.9703 145.645 31.6109L148.274 32.168C147.294 34.4857 145.31 35.6 142.881 35.6C139.739 35.6 137.176 33.2154 137.176 29.7166C137.176 26.2177 139.739 23.8109 142.926 23.8109C145.89 23.8109 148.453 26.1063 148.564 29.4937ZM142.926 26.3737C141.812 26.3737 140.541 27.0423 140.185 28.424H145.556C145.177 26.9977 144.107 26.3737 142.926 26.3737Z" fill="white"/>
<path d="M163.658 20.3343V28.58C163.658 32.7697 161.095 35.6 157.24 35.6C153.295 35.6 150.665 32.7697 150.665 28.58V20.3343H153.696V28.58C153.696 31.076 155.1 32.7029 157.24 32.7029C159.268 32.7029 160.627 31.076 160.627 28.58V20.3343H163.658Z" fill="white"/>
<path d="M173.262 23.8109C176.092 23.8109 178.722 26.2177 178.722 29.7166C178.722 33.2154 176.092 35.6 173.262 35.6C171.746 35.6 170.521 35.1543 169.585 34.3966V39.0543H166.643V24.1451H169.585V25.0366C170.521 24.2566 171.746 23.8109 173.262 23.8109ZM172.749 33.0371C174.532 33.0371 175.869 31.7669 175.869 29.7166C175.869 27.6663 174.532 26.3737 172.749 26.3737C171.167 26.3737 169.585 27.6663 169.585 29.7166C169.585 31.7669 171.167 33.0371 172.749 33.0371Z" fill="white"/>
<path d="M83.6134 24.7909L84.109 24.6888L84.001 24.1944C83.3625 21.2722 80.8284 19.5 77.6068 19.5C75.772 19.5 74.2305 19.9909 73.1372 20.8829C72.0354 21.7818 71.424 23.0616 71.424 24.5463C71.424 26.1466 72.0185 27.2609 72.8888 28.0161C73.7389 28.7536 74.8148 29.1171 75.7423 29.3142L75.7423 29.3143L75.7528 29.3163L78.915 29.9176C79.5457 30.044 79.864 30.2127 80.0278 30.3766C80.1715 30.5203 80.2491 30.7135 80.2491 31.0537C80.2491 31.4324 80.0936 31.759 79.7718 32.0044C79.4382 32.2587 78.8931 32.448 78.0971 32.448C77.319 32.448 76.6918 32.2789 76.2247 31.9569C75.766 31.6407 75.4167 31.1464 75.2408 30.4036L75.1292 29.9326L74.6549 30.0288L71.468 30.6751L71.0129 30.7674L71.0714 31.2281C71.2806 32.8772 72.1497 34.1112 73.3855 34.9207C74.609 35.7222 76.1762 36.1 77.8074 36.1C79.6584 36.1 81.2588 35.6289 82.4084 34.729C83.5701 33.8195 84.2354 32.498 84.2354 30.8977C84.2354 29.6233 83.8212 28.5551 83.0485 27.7378C82.2831 26.9283 81.2001 26.4005 79.9163 26.1296L79.9163 26.1296L79.9118 26.1287L76.7027 25.4824L76.7027 25.4824L76.6984 25.4816C76.1745 25.3808 75.9226 25.2247 75.7961 25.0827C75.6773 24.9495 75.6108 24.7633 75.6108 24.4571C75.6108 23.8254 76.195 23.1074 77.54 23.1074C78.8297 23.1074 79.8098 23.882 79.9879 25.0035L80.0699 25.5204L80.5825 25.4149L83.6134 24.7909ZM98.0887 24.1451V23.6451H97.5887H94.647H94.147V24.0865C93.2537 23.5828 92.1902 23.3109 90.9699 23.3109C87.8507 23.3109 85.0099 25.9545 85.0099 29.7166C85.0099 33.4812 87.8532 36.1 90.9699 36.1C92.1918 36.1 93.2547 35.8275 94.147 35.3339V39.0543V39.5543H94.647H97.5887H98.0887V39.0543V24.1451ZM111.699 24.1451V23.6451H111.199H108.257H107.757V24.1451V29.0703C107.757 30.3752 107.493 31.2047 107.108 31.6991C106.74 32.1715 106.209 32.4034 105.494 32.4034C104.952 32.4034 104.531 32.1992 104.238 31.8587C103.939 31.5112 103.743 30.9834 103.743 30.296V24.1451V23.6451H103.243H100.301H99.8013V24.1451V30.92C99.8013 32.4099 100.283 33.7091 101.164 34.6399C102.047 35.5732 103.297 36.1 104.758 36.1C105.919 36.1 106.921 35.8276 107.757 35.3001V35.7657H108.257H111.199H111.699V35.2657V24.1451ZM126.011 24.1451V23.6451H125.511H122.569H122.069V24.0865C121.176 23.5828 120.113 23.3109 118.892 23.3109C115.773 23.3109 112.932 25.9545 112.932 29.7166C112.932 33.4812 115.776 36.1 118.892 36.1C120.114 36.1 121.177 35.8275 122.069 35.3339V35.7657H122.569H125.511H126.011V35.2657V24.1451ZM136.832 24.1058L136.853 23.7247L136.491 23.6039C136.146 23.489 135.853 23.4891 135.576 23.4891L135.553 23.4891C134.106 23.4891 132.955 24.0124 132.064 24.8314V24.1451V23.6451H131.564H128.622H128.122V24.1451V35.2657V35.7657H128.622H131.564H132.064V35.2657V31.6777C132.064 30.1828 132.367 29.1244 132.916 28.4461C133.449 27.7882 134.279 27.4086 135.531 27.4086H136.177H136.65L136.676 26.9361L136.832 24.1058ZM149.064 29.4937V29.4855L149.064 29.4773C148.944 25.8227 146.162 23.3109 142.926 23.3109C139.463 23.3109 136.676 25.9416 136.676 29.7166C136.676 33.4916 139.463 36.1 142.881 36.1C145.484 36.1 147.666 34.8892 148.735 32.3628L148.971 31.8045L148.378 31.6789L145.748 31.1217L145.397 31.0472L145.214 31.3567C144.865 31.948 144.474 32.2394 144.098 32.3935C143.709 32.5531 143.299 32.5817 142.881 32.5817C141.962 32.5817 141.132 32.025 140.747 30.9966H148.564H149.064V30.4966V29.4937ZM164.158 20.3343V19.8343H163.658H160.627H160.127V20.3343V28.58C160.127 29.7409 159.811 30.6501 159.308 31.2591C158.813 31.8595 158.109 32.2029 157.24 32.2029C156.306 32.2029 155.562 31.8524 155.045 31.2513C154.521 30.643 154.196 29.7371 154.196 28.58V20.3343V19.8343H153.696H150.665H150.165V20.3343V28.58C150.165 30.7796 150.857 32.6637 152.108 34.0025C153.362 35.3444 155.142 36.1 157.24 36.1C159.296 36.1 161.039 35.3416 162.264 33.998C163.485 32.6587 164.158 30.7761 164.158 28.58V20.3343ZM170.085 39.0543V35.3339C170.977 35.8275 172.04 36.1 173.262 36.1C176.378 36.1 179.222 33.4812 179.222 29.7166C179.222 25.9545 176.381 23.3109 173.262 23.3109C172.041 23.3109 170.978 23.5828 170.085 24.0865V23.6451H169.585H166.643H166.143V24.1451V39.0543V39.5543H166.643H169.585H170.085V39.0543ZM94.147 29.7166C94.147 31.4751 92.8045 32.5371 91.4825 32.5371C90.7129 32.5371 90.0667 32.2652 89.6126 31.7974C89.1585 31.3297 88.8625 30.6307 88.8625 29.7166C88.8625 28.8022 89.1587 28.0966 89.6143 27.6228C90.0695 27.1495 90.7155 26.8737 91.4825 26.8737C92.7999 26.8737 94.147 27.9536 94.147 29.7166ZM122.069 29.7166C122.069 31.4751 120.727 32.5371 119.405 32.5371C118.635 32.5371 117.989 32.2652 117.535 31.7974C117.081 31.3297 116.785 30.6307 116.785 29.7166C116.785 28.8022 117.081 28.0966 117.537 27.6228C117.992 27.1495 118.638 26.8737 119.405 26.8737C120.722 26.8737 122.069 27.9536 122.069 29.7166ZM140.938 27.924C141.382 27.2266 142.181 26.8737 142.926 26.8737C143.429 26.8737 143.885 27.0062 144.249 27.2692C144.468 27.4278 144.666 27.6421 144.823 27.924H140.938ZM175.369 29.7166C175.369 30.6307 175.073 31.3297 174.619 31.7974C174.165 32.2652 173.519 32.5371 172.749 32.5371C171.427 32.5371 170.085 31.4751 170.085 29.7166C170.085 27.9536 171.432 26.8737 172.749 26.8737C173.516 26.8737 174.162 27.1495 174.617 27.6228C175.073 28.0966 175.369 28.8022 175.369 29.7166Z" stroke="black"/>
</g>
<defs>
<filter id="filter0_d_19_566" x="66.4585" y="19" width="117.263" height="29.0543" filterUnits="userSpaceOnUse" color-interpolation-filters="sRGB">
<feFlood flood-opacity="0" result="BackgroundImageFix"/>
<feColorMatrix in="SourceAlpha" type="matrix" values="0 0 0 0 0 0 0 0 0 0 0 0 0 0 0 0 0 0 127 0" result="hardAlpha"/>
<feOffset dy="4"/>
<feGaussianBlur stdDeviation="2"/>
<feComposite in2="hardAlpha" operator="out"/>
<feColorMatrix type="matrix" values="0 0 0 0 0 0 0 0 0 0 0 0 0 0 0 0 0 0 0.25 0"/>
<feBlend mode="normal" in2="BackgroundImageFix" result="effect1_dropShadow_19_566"/>
<feBlend mode="normal" in="SourceGraphic" in2="effect1_dropShadow_19_566" result="shape"/>
</filter>
</defs>
</svg>
